<svg xmlns="http://www.w3.org/2000/svg" viewBox="0 13.199999809265137 58.349998474121094 36.79999923706055" data-asc="1" width="58.349998474121094" height="36.79999923706055"><defs/><g><g fill="#000000"><g transform="translate(0, 0)"><path d="M0 50L14 14.70L21.10 14.70L34.95 50L26.65 50L16.05 20.70L18.90 20.70L8.15 50L0 50M7.95 43.60L7.95 37.20L27.20 37.20L27.20 43.60L7.95 43.60ZM46.30 34.50L46.25 26.65L40.10 31.10L37.30 25.65L44.45 23.20L38.50 18.80L42.85 14.40L47.20 20.45L49.60 13.20L55.10 16.05L50.65 22.30L58.35 22.35L57.35 28.45L50.10 26.05L52.45 33.50L46.30 34.50Z"/></g></g></g></svg>