<svg xmlns="http://www.w3.org/2000/svg" viewBox="0 17.649999618530273 55.634613037109375 36.44999694824219" data-asc="1.082" width="55.634613037109375" height="36.44999694824219"><defs/><g><g fill="#000000"><g transform="translate(0, 0)"><path d="M19.15 18.60L31.30 49.90Q32 51.70 32.88 52.38Q33.75 53.05 34.45 53.10L34.45 54.10Q32.95 54 30.93 53.98Q28.90 53.95 26.85 53.95Q24.55 53.95 22.50 53.98Q20.45 54 19.25 54.10L19.25 53.10Q21.80 53 22.48 52.23Q23.15 51.45 22.15 48.90L13.65 25.65L14.55 24.35L6.95 44.15Q5.85 46.90 5.63 48.65Q5.40 50.40 5.88 51.35Q6.35 52.30 7.43 52.68Q8.50 53.05 10 53.10L10 54.10Q8.35 54 6.85 53.98Q5.35 53.95 3.80 53.95Q2.70 53.95 1.73 53.98Q0.75 54 0 54.10L0 53.10Q1.05 52.90 2.15 51.75Q3.25 50.60 4.30 47.85L15.70 18.60Q16.50 18.65 17.43 18.65Q18.35 18.65 19.15 18.60M22.65 39.70L22.65 40.70L7.75 40.70L8.25 39.70L22.65 39.70ZM51.70 22.15Q53 21.40 53.90 21.77Q54.80 22.15 55.25 22.90Q55.70 23.70 55.58 24.65Q55.45 25.60 54.15 26.35Q52.90 27.05 50.98 27.32Q49.05 27.60 46.15 28.25L46.10 28.10Q47.95 26 49.23 24.43Q50.50 22.85 51.70 22.15M46.20 28.10Q48.90 28.70 50.92 29Q52.95 29.30 54.15 30Q55.45 30.75 55.60 31.73Q55.75 32.70 55.25 33.45Q54.85 34.25 53.95 34.60Q53.05 34.95 51.75 34.20Q50.50 33.50 49.30 31.98Q48.10 30.45 46.10 28.25L46.20 28.10M46.25 28.20Q47.10 30.85 47.85 32.73Q48.60 34.60 48.60 36.05Q48.60 37.55 47.80 38.15Q47 38.75 46.15 38.75Q45.20 38.75 44.48 38.15Q43.75 37.55 43.75 36.05Q43.75 34.60 44.45 32.80Q45.15 31 46.10 28.25L46.25 28.20M46.10 28.20L46.20 28.30Q44.30 30.35 43.05 31.95Q41.80 33.55 40.60 34.25Q39.30 35 38.38 34.63Q37.45 34.25 37 33.50Q36.55 32.70 36.70 31.75Q36.85 30.80 38.15 30.05Q39.40 29.35 41.30 29.05Q43.20 28.75 46.10 28.20M40.55 22.20Q41.80 22.90 43 24.43Q44.20 25.95 46.15 28.15L46.10 28.30Q43.35 27.70 41.35 27.40Q39.35 27.10 38.10 26.40Q36.85 25.65 36.70 24.68Q36.55 23.70 37 22.95Q37.45 22.15 38.35 21.80Q39.25 21.45 40.55 22.20M46.15 17.65Q47.05 17.65 47.80 18.25Q48.55 18.85 48.55 20.35Q48.55 21.75 47.83 23.57Q47.10 25.40 46.20 28.20L46.05 28.20Q45.15 25.55 44.43 23.65Q43.70 21.75 43.70 20.35Q43.70 18.85 44.48 18.25Q45.25 17.65 46.15 17.65Z"/></g></g></g></svg>