<svg xmlns="http://www.w3.org/2000/svg" viewBox="0.04596775770187378 14.199999809265137 57.52546310424805 35.32856750488281" data-asc="0.974" width="57.52546310424805" height="35.32856750488281"><defs/><g><g fill="#000000"><g transform="translate(0, 0)"><path d="M34.05 43.85Q34.65 45.10 34.70 45.97Q34.75 46.85 34.17 47.52Q33.60 48.20 32.30 48.85Q30.30 49.80 29.20 49.42Q28.10 49.05 27.15 47.05L17.35 26.55L7.60 47.05Q6.60 49.00 5.53 49.37Q4.45 49.75 2.45 48.80Q1.15 48.20 0.57 47.52Q0 46.85 0.05 45.92Q0.10 45.00 0.75 43.75L13.90 16.40Q14.40 15.40 15.38 14.80Q16.35 14.20 17.40 14.20Q18.15 14.20 18.80 14.47Q19.45 14.75 19.98 15.25Q20.50 15.75 20.85 16.45L34.05 43.85M8.95 41.00L12.05 34.55L22.70 34.55L25.80 41.00L8.95 41.00ZM46.80 14.45Q48.70 14.45 49.48 15.20Q50.25 15.95 50.25 17.85L50.25 20.45L53.65 19.40Q55.05 19.05 55.88 19.57Q56.70 20.10 57.25 21.85Q57.85 23.65 57.33 24.60Q56.80 25.55 54.95 26.20L52.35 27.00L54.50 30.05Q55.25 31.25 54.95 32.17Q54.65 33.10 53.20 34.15Q51.70 35.30 50.65 35.12Q49.60 34.95 48.55 33.40L46.80 31.05L44.75 33.85Q43.85 35.05 42.83 35.07Q41.80 35.10 40.30 34.00Q38.80 32.95 38.60 31.97Q38.40 31.00 39.40 29.60L41.25 27.00L38.20 26.10Q36.60 25.75 36.18 24.80Q35.75 23.85 36.35 21.95Q37 20.05 37.88 19.52Q38.75 19.00 40.35 19.55L43.40 20.50L43.40 17.70Q43.40 15.90 44.18 15.17Q44.95 14.45 46.80 14.45Z"/></g></g></g></svg>