<svg xmlns="http://www.w3.org/2000/svg" viewBox="0 16.049999237060547 52.95000076293945 34.54999923706055" data-asc="1.007" width="52.95000076293945" height="34.54999923706055"><defs/><g><g fill="#000000"><g transform="translate(0, 0)"><path d="M1.30 50.60Q0.75 50.60 0.38 50.42Q0 50.25 0 49.80Q0 49.30 0.33 49.07Q0.65 48.85 1.20 48.70Q2.65 48.30 3.73 47.45Q4.80 46.60 5.35 45.35Q6.60 42.55 7.70 39.82Q8.80 37.10 9.85 34.42Q10.90 31.75 11.95 28.97Q13 26.20 14.05 23.35Q14.80 21.30 15 20.37Q15.20 19.45 15.30 19.30Q16.20 19.05 17 18.85Q17.80 18.65 18.70 18.30Q19.60 17.95 20.23 17.40Q20.85 16.85 21.15 16.55Q21.35 16.40 21.55 16.37Q21.75 16.35 21.95 16.70Q22.10 17.00 22.23 17.32Q22.35 17.65 22.45 18.05Q23.50 21.40 24.60 24.87Q25.70 28.35 26.82 31.80Q27.95 35.25 29.05 38.62Q30.15 42.00 31.20 45.20Q31.50 46.20 32.13 46.90Q32.75 47.60 33.55 48.00Q34.35 48.40 35.35 48.70Q35.90 48.85 36.23 49.07Q36.55 49.30 36.55 49.75Q36.55 50.10 36.25 50.30Q35.95 50.50 35.55 50.50Q34.55 50.50 33.08 50.42Q31.60 50.35 30.10 50.30Q28.60 50.25 27.45 50.25Q26.50 50.25 25.13 50.30Q23.75 50.35 22.35 50.40Q20.95 50.45 19.95 50.45Q19.50 50.45 19.18 50.27Q18.85 50.10 18.85 49.75Q18.85 49.30 19.20 49.05Q19.55 48.80 20.05 48.70Q21.90 48.30 22.75 47.65Q23.60 47.00 23.30 45.70Q23.10 44.75 22.80 43.70Q22.50 42.65 22.23 41.57Q21.95 40.50 21.65 39.50Q21.55 39.10 21.40 38.90Q21.25 38.70 20.80 38.70L11.95 38.70Q11.60 38.70 11.40 38.90Q11.20 39.10 11.10 39.55Q10.90 40.25 10.65 40.95Q10.40 41.65 10.18 42.35Q9.95 43.05 9.75 43.75Q9.55 44.45 9.35 45.10Q9 46.60 9.65 47.40Q10.30 48.20 12.45 48.70Q13.65 48.95 13.65 49.75Q13.65 50.10 13.38 50.27Q13.10 50.45 12.50 50.45Q11.05 50.45 9.80 50.37Q8.55 50.30 7.05 50.30Q5.55 50.30 4.20 50.45Q2.85 50.60 1.30 50.60M13.35 36.00L19.85 36.00Q20.60 36.00 20.60 35.65Q20.60 35.50 20.57 35.40Q20.55 35.30 20.50 35.15L17.15 23.85Q17 23.30 16.85 23.30Q16.75 23.30 16.50 23.85L12.55 35.15Q12.45 35.35 12.45 35.55Q12.45 35.80 12.72 35.90Q13 36.00 13.35 36.00ZM46 32.75Q45.40 32.75 44.95 32.30Q44.50 31.85 44.45 31.20L43.80 27.55Q43.35 27.75 42.40 28.35Q41.45 28.95 40.50 29.50Q40.25 29.65 39.98 29.72Q39.70 29.80 39.40 29.80Q38.85 29.80 38.43 29.45Q38 29.10 38 28.50Q38 27.60 38.80 27.05L41.60 24.80Q41.25 24.50 40.28 24.02Q39.30 23.55 38.40 23.05Q37.90 22.85 37.63 22.40Q37.35 21.95 37.35 21.45Q37.35 20.60 38.03 20.27Q38.70 19.95 39.65 20.30Q40.50 20.60 41.35 20.95Q42.20 21.30 43 21.60Q42.95 20.70 42.93 19.82Q42.90 18.95 42.85 17.95Q42.85 17.25 43.23 16.67Q43.60 16.10 44.40 16.05Q45 16.10 45.45 16.57Q45.90 17.05 45.95 17.65L46.40 21.25Q46.80 21.00 47.70 20.37Q48.60 19.75 49.45 19.25Q49.70 19.05 50 18.95Q50.30 18.85 50.60 18.85Q51.15 18.85 51.58 19.22Q52 19.60 52 20.25Q52 21.05 51.30 21.65L48.55 24.00Q48.95 24.20 49.95 24.65Q50.95 25.10 51.80 25.55Q52.30 25.75 52.63 26.15Q52.95 26.55 52.95 27.05Q52.95 27.95 52.30 28.27Q51.65 28.60 50.65 28.40Q49.80 28.10 48.95 27.77Q48.10 27.45 47.25 27.20Q47.30 27.65 47.38 28.80Q47.45 29.95 47.50 31.00Q47.50 31.60 47.15 32.17Q46.80 32.75 46 32.75Z"/></g></g></g></svg>