<svg xmlns="http://www.w3.org/2000/svg" viewBox="0 7.690000057220459 58.540000915527344 41.55000305175781" data-asc="0.98486328125" width="58.540000915527344" height="41.55000305175781"><defs/><g><g fill="#000000"><g transform="translate(0, 0)"><path d="M21.00 35.25L21.00 28.25Q21.00 26.81 20.45 25.52Q19.90 24.24 18.95 23.29Q17.99 22.34 16.71 21.79Q15.43 21.24 13.99 21.24Q12.55 21.24 11.27 21.79Q9.99 22.34 9.03 23.29Q8.08 24.24 7.53 25.52Q6.98 26.81 6.98 28.25L6.98 35.25L21.00 35.25M28.00 49.24L21.00 49.24L21.00 42.24L6.98 42.24L6.98 49.24L0 49.24L0 28.25Q0 25.34 1.10 22.79Q2.20 20.24 4.09 18.33Q5.98 16.43 8.53 15.33Q11.08 14.23 13.99 14.23Q16.89 14.23 19.45 15.33Q22.00 16.43 23.90 18.33Q25.81 20.24 26.90 22.79Q28.00 25.34 28.00 28.25L28.00 49.24ZM50.59 22.85L56.45 29.10L50.98 33.94L45.68 27.00L40.19 33.94L34.94 29.10L40.28 22.90L32.59 18.48L35.84 12.65L42.04 15.89L42.04 7.69L49.02 7.69L49.02 15.89L55.74 12.65L58.54 18.75L50.59 22.85Z"/></g></g></g></svg>