<svg xmlns="http://www.w3.org/2000/svg" viewBox="0 11.75 57.54473876953125 34.45000076293945" data-asc="0.924" width="57.54473876953125" height="34.45000076293945"><defs/><g><g fill="#000000"><g transform="translate(0, 0)"><path d="M9.70 33.35L24.10 33.35L24.45 34.75L8.95 34.75L9.70 33.35M36.25 45.60Q36.50 45.60 36.50 45.90Q36.50 46.20 36.25 46.20Q35.25 46.20 33.15 46.10Q30.95 46 30 46Q28.75 46 26.95 46.10Q25.25 46.20 24.25 46.20Q24.05 46.20 24.05 45.90Q24.05 45.60 24.25 45.60Q25.55 45.60 26.13 45.33Q26.70 45.05 26.70 44.35Q26.70 43.50 25.70 41.50L15.55 21.45L18 17.15L8.05 39.10Q7.40 40.55 7.40 41.80Q7.40 43.60 8.68 44.60Q9.95 45.60 12.10 45.60Q12.35 45.60 12.35 45.90Q12.35 46.20 12.10 46.20Q11.20 46.20 9.50 46.10Q7.60 46 6.20 46Q4.85 46 2.95 46.10Q1.25 46.20 0.20 46.20Q0 46.20 0 45.90Q0 45.60 0.20 45.60Q1.60 45.60 2.55 45.03Q3.50 44.45 4.45 42.98Q5.40 41.50 6.70 38.60L17.55 14.75Q17.65 14.60 18 14.60Q18.40 14.60 18.45 14.75L30.95 39.35Q32.70 42.90 33.85 44.25Q35 45.60 36.25 45.60ZM44.20 27.90Q44.15 28.05 43.80 28.05Q43.15 28.05 41.83 27.53Q40.50 27 39.48 26.38Q38.45 25.75 38.70 25.65L46.50 21.65L46.60 21.60Q46.75 21.60 46.88 21.73Q47 21.85 46.95 21.95L44.20 27.90M47.80 22.10Q47.80 22 48 21.88Q48.20 21.75 48.25 21.80L53.05 26.25Q53.40 26.55 52.50 27.78Q51.60 29.00 50.45 30.03Q49.30 31.05 49.25 30.75L47.80 22.15L47.80 22.10M39.85 19.90Q39.40 19.80 39.40 18.40Q39.40 17 39.73 15.38Q40.05 13.75 40.30 14L46.55 20.20Q46.65 20.30 46.58 20.50Q46.50 20.70 46.40 20.65L39.85 19.90M48.70 21Q48.60 21 48.53 20.80Q48.45 20.60 48.60 20.55L54.25 17.30Q54.70 17.10 55.58 18.33Q56.45 19.55 57.10 20.98Q57.75 22.40 57.45 22.35L48.70 21M46.20 13.35Q46.10 12.80 48.08 12.27Q50.05 11.75 51.40 11.75Q52 11.75 51.95 11.95L48 19.75Q47.95 19.90 47.73 19.90Q47.50 19.90 47.50 19.75L46.20 13.35Z"/></g></g></g></svg>