<svg xmlns="http://www.w3.org/2000/svg" viewBox="0 14.039999961853027 60.45000076293945 45.98999786376953" data-asc="1.0302734375" width="60.45000076293945" height="45.98999786376953"><defs/><g><g fill="#000000"><g transform="translate(0, 0)"><path d="M16.63 21.58Q14.14 20.95 11.79 20.95Q6.03 20.95 1.29 24.85Q1.32 24.61 1.14 23.57Q0.95 22.53 1.00 22.29Q7.42 17.02 14.97 14.04Q24.83 16.97 33.11 22.09Q32.57 22.97 31.76 23.63Q30.96 24.29 30.42 25.15Q30.25 25.61 30.25 26.46L30.25 27.78L30.42 40.87Q30.49 42.46 31.01 42.85L33.47 44.87L29.17 50.76L23.58 46.02Q24.12 42.19 24.12 35.99L14.99 35.99Q14.06 44.63 9.70 50.63Q5.35 56.64 1.86 60.03Q0.83 59.30 0 58.81Q2.83 55.86 4.24 52.05Q5.64 48.24 6.64 44.01Q7.64 39.77 7.64 35.71Q7.64 31.64 5.86 28.08Q11.79 25.12 16.63 21.58M24.02 30.25Q23.97 27.34 23.97 26.67Q23.97 26.00 24.00 25.15Q21.58 23.44 18.92 22.34Q17.19 23.63 16.28 25.31Q15.38 26.98 15.21 30.25L24.02 30.25ZM34.13 36.52L40.48 29.61L46.22 34.91L39.94 41.16Q37.55 39.14 34.13 36.52M41.46 28.56L48.90 20.46Q49.22 22.34 50.48 24.17Q51.73 26.00 53.37 27.81L47.24 33.91L41.46 28.56M54.39 28.83Q55.93 30.52 57.56 32.18Q59.18 33.84 60.45 35.50L55.32 41.36L48.29 34.89L54.39 28.83M47.07 50.61Q47.07 47.49 41.02 42.11L47.27 35.89L54.39 42.43L47.07 50.76Q47.07 50.68 47.07 50.61Z"/></g></g></g></svg>