<svg xmlns="http://www.w3.org/2000/svg" viewBox="0 9.0600004196167 56.400001525878906 40.7415771484375" data-asc="0.986328125" width="56.400001525878906" height="40.7415771484375"><defs/><g><g fill="#000000"><g transform="translate(0, 0)"><path d="M24.88 15.97Q26.27 22.90 27.22 27.86Q28.17 32.81 28.77 36.18Q29.37 39.55 29.70 41.69Q30.03 43.82 30.15 45.09Q30.27 46.36 30.29 47.11Q30.30 47.85 30.25 48.49Q29.15 49.17 27.86 49.48Q26.56 49.78 25.27 49.80Q23.39 49.83 21.73 49.29Q20.07 48.75 19.19 47.83L21.17 41.19L20.70 39.06L19.38 39.06Q18.14 38.99 16.43 38.87Q14.72 38.75 13.18 38.62Q12.94 40.67 12.60 42.68Q12.26 44.68 11.56 46.30Q10.86 47.92 9.63 48.88Q8.40 49.83 6.35 49.80Q4.30 49.76 2.50 48.73Q0.71 47.71 0 45.90L1.10 41.92L4.32 42.19L8.57 20.83Q6.86 20.58 5.40 20.29Q3.93 20.00 2.95 19.63Q3.00 18.36 3.36 16.82Q3.71 15.28 4.39 13.84Q5.08 12.40 6.08 11.50Q10.96 12.30 15.64 13.44Q20.31 14.58 24.88 15.97M14.79 21.53Q14.72 22.61 14.59 24.55Q14.45 26.49 14.23 28.92Q14.01 31.35 13.75 33.86Q15.21 33.72 16.81 33.56Q18.41 33.40 19.51 33.30L16.89 21.70Q16.41 21.66 15.88 21.61Q15.36 21.56 14.79 21.53ZM40.31 34.77Q38.89 34.77 37.62 34.12Q36.35 33.47 35.38 32.48Q34.40 31.49 33.81 30.52Q35.45 28.54 37.35 26.99Q39.26 25.44 41.33 24.24L41.28 23.97Q41.09 23.97 40.69 23.99Q40.28 24.00 40.09 24.00Q38.06 24.00 35.84 23.75Q33.62 23.51 31.81 22.95Q31.98 20.75 33.00 18.51Q34.01 16.26 35.77 15.06L42.48 20.95Q42.55 20.90 42.63 20.85Q42.70 20.80 42.80 20.75Q42.33 19.60 41.96 17.70Q41.58 15.80 41.33 13.92Q41.09 12.04 41.02 10.99Q41.99 10.08 43.30 9.57Q44.60 9.06 46.02 9.06Q46.83 9.06 47.94 9.23Q49.05 9.40 49.85 9.81L46.48 20.95Q46.61 21.02 46.64 21.08Q46.68 21.14 46.78 21.22L54.52 15.72Q55.44 16.60 55.92 18.02Q56.40 19.43 56.40 21.02Q56.40 22.63 55.93 24.00Q55.03 24.19 54.05 24.28Q53.08 24.37 52.25 24.37Q50.90 24.37 49.50 24.21Q48.10 24.05 47.05 23.90Q47.00 24.00 46.98 24.01Q46.97 24.02 46.92 24.15L54.44 30.10Q53.32 31.96 51.50 33.03Q49.68 34.11 47.46 34.38Q46.48 32.74 45.52 30.43Q44.56 28.13 43.80 25.81L43.60 25.76L40.31 34.77Z"/></g></g></g></svg>