<svg xmlns="http://www.w3.org/2000/svg" viewBox="0 11.960000038146973 48 37.70000076293945" data-asc="0.9794921875" width="48" height="37.70000076293945"><defs/><g><g fill="#000000"><g transform="translate(0, 0)"><path d="M24.85 41.75Q24.85 42.72 24.68 44.09Q24.51 45.46 24.02 46.70Q23.54 47.95 22.71 48.80Q21.88 49.66 20.51 49.66Q18.70 49.66 17.80 48.34Q16.89 47.02 16.50 45.19Q16.11 43.36 16.04 41.46Q15.97 39.55 15.92 38.43Q12.40 39.01 8.98 39.45Q8.89 40.58 8.57 42.24Q8.25 43.90 7.59 45.43Q6.93 46.97 5.88 48.10Q4.83 49.22 3.32 49.22Q2.15 49.22 1.49 48.36Q0.83 47.51 0.49 46.34Q0.15 45.17 0.07 43.92Q0 42.68 0 41.85Q0 39.06 0.44 36.35Q0.88 33.64 1.46 30.96Q1.76 29.54 2.25 27.64Q2.73 25.73 3.44 23.71Q4.15 21.68 5.10 19.70Q6.05 17.72 7.28 16.16Q8.50 14.60 10.06 13.62Q11.62 12.65 13.53 12.65Q15.38 12.65 16.75 13.48Q18.12 14.31 19.14 15.67Q20.17 17.04 20.85 18.77Q21.53 20.51 22.00 22.29Q22.46 24.07 22.78 25.78Q23.10 27.49 23.34 28.81Q23.97 31.98 24.41 35.23Q24.85 38.48 24.85 41.75M15.43 29.88Q15.43 29.30 15.36 27.95Q15.28 26.61 15.04 25.27Q14.79 23.93 14.28 22.88Q13.77 21.83 12.89 21.83Q12.40 21.83 11.96 22.49Q11.52 23.14 11.18 24.15Q10.84 25.15 10.57 26.37Q10.30 27.59 10.11 28.71Q9.91 29.83 9.81 30.74Q9.72 31.64 9.67 32.03Q12.60 31.79 15.43 31.30L15.43 29.88ZM48.00 18.16Q48.00 18.70 47.27 19.46Q46.53 20.21 45.56 21.00Q44.58 21.78 43.65 22.41Q42.72 23.05 42.33 23.34Q42.77 23.63 43.70 24.37Q44.63 25.10 45.58 25.95Q46.53 26.81 47.27 27.66Q48.00 28.52 48.00 29.10Q48.00 29.49 47.75 29.59Q47.51 29.69 47.22 29.69Q46.58 29.69 45.61 29.39Q44.63 29.10 43.63 28.66Q42.63 28.22 41.70 27.78Q40.77 27.34 40.19 27.05Q40.19 27.49 40.11 28.74Q40.04 29.98 39.84 31.32Q39.65 32.67 39.28 33.72Q38.92 34.77 38.28 34.77Q37.50 34.77 37.04 33.76Q36.57 32.76 36.33 31.47Q36.08 30.18 35.99 28.93Q35.89 27.69 35.84 27.15Q35.25 27.44 34.40 27.91Q33.54 28.37 32.62 28.76Q31.69 29.15 30.79 29.44Q29.88 29.74 29.20 29.74Q28.76 29.74 28.42 29.52Q28.08 29.30 28.08 28.76Q28.08 28.13 28.78 27.32Q29.49 26.51 30.42 25.76Q31.35 25 32.28 24.37Q33.20 23.73 33.69 23.44Q33.25 23.14 32.32 22.53Q31.40 21.92 30.49 21.19Q29.59 20.46 28.88 19.70Q28.17 18.95 28.17 18.36Q28.17 17.82 28.59 17.63Q29.00 17.43 29.44 17.43Q30.08 17.43 30.96 17.68Q31.84 17.92 32.71 18.26Q33.59 18.60 34.40 18.99Q35.21 19.38 35.79 19.68Q35.84 19.29 36.01 18.02Q36.18 16.75 36.50 15.41Q36.82 14.06 37.26 13.01Q37.70 11.96 38.28 11.96Q38.77 11.96 39.11 13.01Q39.45 14.06 39.65 15.43Q39.84 16.80 39.97 18.04Q40.09 19.29 40.14 19.68Q40.77 19.38 41.63 19.02Q42.48 18.65 43.43 18.36Q44.38 18.07 45.29 17.85Q46.19 17.63 46.92 17.63Q47.17 17.63 47.58 17.70Q48.00 17.77 48.00 18.16Z"/></g></g></g></svg>