<svg xmlns="http://www.w3.org/2000/svg" viewBox="0 9.350000381469727 55.29999923706055 41" data-asc="0.92" width="55.29999923706055" height="41"><defs/><g><g fill="#000000"><g transform="translate(0, 0)"><path d="M2.30 50.35Q0.80 49.55 0.40 48.70Q0 47.85 0 47.25Q0 45.90 0.98 43.63Q1.95 41.35 3.60 38.40Q5.25 35.45 7.35 32.25Q5.80 32.15 4.40 32.10Q3 32.05 0.80 32.05L0 32.05Q0.70 30.25 2.23 29.52Q3.75 28.80 5.80 28.80Q6.65 28.80 7.58 28.90Q8.50 29 9.50 29.10Q12 25.50 14.43 22.30Q16.85 19.10 19.03 16.52Q21.20 13.95 22.90 12.30Q25.30 9.90 26.40 9.90Q27.10 9.90 27.98 10.45Q28.85 11 29.80 11.85Q29.30 12.25 28.53 13.90Q27.75 15.55 26.88 18.07Q26 20.60 25.13 23.60Q24.25 26.60 23.55 29.70Q22.85 32.80 22.43 35.63Q22 38.45 22 40.60Q22 42.60 22.40 43.58Q22.80 44.55 23.75 44.55Q24.90 44.55 26.60 42.80Q28.30 41.05 30.40 37.10L31.30 38.05Q29.75 42.15 27.28 44.80Q24.80 47.45 22 47.45Q19.60 47.45 18.60 45.38Q17.60 43.30 17.60 39.70Q17.60 38.55 17.75 37.10Q17.90 35.65 18.25 33.50Q16.05 33.15 14.35 32.95Q12.65 32.75 11.10 32.55Q8.70 36.80 6.45 41.35Q4.20 45.90 2.30 50.35M18.75 31.05Q19.40 28.10 20.28 25.07Q21.15 22.05 22.13 19.27Q23.10 16.50 24.05 14.30Q22.55 15.50 20.70 17.75Q18.85 20 16.82 23.05Q14.80 26.10 12.70 29.70Q14.20 30 15.70 30.35Q17.20 30.70 18.75 31.05ZM51.05 25.80Q49.95 24.65 48.65 22.92Q47.35 21.20 46.10 19.45Q44.85 21.75 43.48 23.45Q42.10 25.15 40.10 25.25Q40.90 24.15 41.50 23.07Q42.10 22 42.63 20.92Q43.15 19.85 43.70 18.85Q41.75 18.85 40.05 18.47Q38.35 18.10 37.90 16.55Q39.05 16.50 40.65 16.45Q42.25 16.40 43.65 16.30Q42.65 14.80 42.03 13.45Q41.40 12.10 41.40 11.20Q41.40 10.35 41.92 10Q42.45 9.65 42.45 9.35Q43.70 11.55 44.40 12.92Q45.10 14.30 45.95 15.45Q46.65 13.25 47.95 11.57Q49.25 9.90 51.25 9.45Q50.60 11.30 49.70 12.95Q48.80 14.60 48.05 16.25Q49.35 16.25 50.58 16.38Q51.80 16.50 53 16.92Q54.20 17.35 55.30 18.25L48.55 18.80Q49.20 19.65 49.75 20.52Q50.30 21.40 50.65 22.63Q51 23.85 51.05 25.80Z"/></g></g></g></svg>