<svg xmlns="http://www.w3.org/2000/svg" viewBox="0 9.960000038146973 52.23500061035156 48.4900016784668" data-asc="0.9345703125" width="52.23500061035156" height="48.4900016784668"><defs/><g><g fill="#000000"><g transform="translate(0, 0)"><path d="M26.66 9.96Q28.37 9.96 29.47 10.91Q30.57 11.87 30.42 14.36Q30.37 15.19 30.03 17.46Q29.69 19.73 29.20 22.80Q28.71 25.88 28.10 29.42Q27.49 32.96 26.95 36.33L27.98 36.33Q28.47 36.33 29.05 36.28Q29.64 36.23 30.27 36.13Q30.03 36.72 29.74 37.23Q29.44 37.74 29.15 38.13Q28.81 38.57 28.47 38.92Q28.03 39.45 27.44 39.87Q26.86 40.28 26.32 40.53Q25.98 42.92 25.76 44.80Q25.54 46.68 25.49 47.90Q25.39 49.76 25.59 51.37Q25.73 52.78 26.17 54.25Q26.61 55.71 27.59 56.59L21.92 58.45Q21.34 57.62 21.07 56.23Q20.80 54.83 20.70 53.47Q20.56 51.86 20.65 50.15Q20.75 48.44 21.19 45.68Q21.63 42.92 22.17 39.65Q21.19 39.36 20.04 39.16Q18.90 38.96 17.48 38.96Q16.21 38.96 14.82 39.06Q13.43 39.16 12.06 39.31Q11.47 41.46 10.89 43.85Q10.25 46.44 9.74 48.27Q9.23 50.10 8.76 51.32Q8.30 52.54 7.84 53.27Q7.37 54.00 6.84 54.35Q6.25 54.64 5.37 54.88Q4.54 55.13 3.27 55.37Q2.00 55.62 0 55.76Q0.73 54.88 1.27 54.15Q1.81 53.42 2.34 52.34Q2.88 51.27 3.54 49.58Q4.20 47.90 5.22 45.17Q5.66 44.04 6.13 42.70Q6.59 41.36 7.13 39.94Q5.37 40.19 4.15 40.38Q2.93 40.58 2.69 40.67Q2.29 40.72 2.05 40.67Q1.42 40.58 1.37 40.04Q1.42 39.36 1.83 39.11Q2.25 38.87 3.08 38.53Q3.47 38.33 4.86 37.82Q6.25 37.30 8.25 36.72Q8.98 34.67 9.69 32.64Q10.40 30.62 11.08 28.76Q11.77 26.90 12.40 25.27Q13.04 23.63 13.57 22.46Q14.40 20.65 15.70 18.48Q16.99 16.31 18.68 14.40Q20.36 12.50 22.39 11.23Q24.41 9.96 26.66 9.96M26.12 20.12Q26.66 17.92 26.86 16.50Q27.05 15.09 27.00 14.28Q26.95 13.48 26.68 13.16Q26.42 12.84 26.03 12.84Q25.39 12.84 24.46 13.33Q23.54 13.82 22.51 14.72Q21.48 15.63 20.48 16.97Q19.48 18.31 18.70 20.02Q17.58 22.56 16.16 26.25Q14.75 29.93 13.09 35.64Q14.06 35.50 15.01 35.40Q15.97 35.30 16.89 35.30Q18.55 35.30 20.07 35.42Q21.58 35.55 22.85 35.69Q23.29 33.35 23.75 31.08Q24.22 28.81 24.66 26.76Q25.10 24.71 25.46 23.00Q25.83 21.29 26.12 20.12ZM51.71 15.48Q51.90 15.53 52.05 16.09Q52.20 16.65 52.22 17.33Q52.25 18.02 52.22 18.60Q52.20 19.19 52.15 19.29Q52.00 19.38 51.27 19.43Q50.63 19.48 49.37 19.48Q48.10 19.48 45.75 19.38Q45.51 19.43 45.36 19.56Q45.21 19.68 45.51 20.02Q47.22 21.58 48.12 22.49Q49.02 23.39 49.41 23.88Q49.90 24.41 49.95 24.61Q49.90 24.85 49.32 25.27Q48.73 25.68 48.05 26.12Q47.36 26.56 46.73 26.86Q46.09 27.15 45.90 27.15Q45.75 27.05 45.46 26.37Q45.21 25.78 44.80 24.56Q44.38 23.34 43.80 21.00Q43.55 20.46 43.31 20.90Q42.19 22.95 41.53 24.12Q40.87 25.29 40.48 25.83Q40.04 26.46 39.84 26.61Q39.65 26.71 39.06 26.22Q38.48 25.73 37.89 25.10Q37.30 24.46 36.84 23.85Q36.38 23.24 36.38 23.05Q36.47 22.90 37.06 22.41Q37.60 22.02 38.67 21.31Q39.75 20.61 41.80 19.48Q42.14 19.14 41.70 18.99Q39.50 18.46 38.28 18.12Q37.06 17.77 36.47 17.53Q35.79 17.29 35.64 17.09Q35.60 16.89 35.91 16.26Q36.23 15.63 36.67 14.94Q37.11 14.26 37.52 13.70Q37.94 13.13 38.09 13.13Q38.23 13.18 38.77 13.62Q39.21 14.01 40.09 14.82Q40.97 15.63 42.43 17.14Q42.77 17.43 42.90 17.36Q43.02 17.29 43.07 16.94Q42.97 14.75 42.99 13.53Q43.02 12.30 43.07 11.67Q43.12 10.94 43.21 10.74Q43.31 10.60 44.07 10.64Q44.82 10.69 45.70 10.79Q46.58 10.89 47.31 11.08Q48.05 11.28 48.05 11.43Q48.00 11.62 47.71 12.30Q47.46 12.89 46.88 14.01Q46.29 15.14 45.26 17.09Q45.12 17.38 45.21 17.53Q45.31 17.68 45.70 17.53Q47.75 16.70 48.93 16.28Q50.10 15.87 50.73 15.67Q51.46 15.48 51.71 15.48Z"/></g></g></g></svg>