<svg xmlns="http://www.w3.org/2000/svg" viewBox="0 9.949999809265137 68.05000305175781 34.20000076293945" data-asc="0.8" width="68.05000305175781" height="34.20000076293945"><defs/><g><g fill="#000000"><g transform="translate(0, 0)"><path d="M6.55 44.15Q4.90 44.15 3.40 43.60Q1.90 43.05 0.95 41.85Q0 40.65 0 38.80Q0 38.35 0.22 37.98Q0.45 37.60 0.65 37.60Q1.05 37.60 1.05 38.80Q1.05 40.50 2.50 41.45Q3.65 42.20 5.60 42.20Q7.55 42.20 9.65 41.50Q11.75 40.80 13.65 39.50Q15.90 38 18.68 35.17Q21.45 32.35 24.45 29Q22.05 28.75 19.68 28.45Q17.30 28.15 14.90 28.15Q13.30 28.15 11.70 28.48Q10.10 28.80 8.80 29.70Q7.50 30.60 6.85 32.35Q6.80 32.55 6.73 32.80Q6.65 33.05 6.65 33.30Q6.65 33.80 6.90 34.20Q7.00 34.50 7.00 34.55Q7.00 35 6.60 35Q6.25 35 6.05 34.65Q5.55 33.75 5.55 32.35Q5.55 29.70 6.53 28.30Q7.50 26.90 9.15 26.40Q10.80 25.90 12.70 25.90Q13.55 25.90 14.47 25.98Q15.40 26.05 16.30 26.15Q18.50 26.35 20.85 26.82Q23.20 27.30 25.55 27.80Q28.15 24.75 30.68 21.65Q33.20 18.55 35.40 15.77Q37.60 13 39.15 11Q39.20 10.85 39.35 10.80Q39.45 10.70 39.50 10.70Q40.05 10.40 40.90 10.17Q41.75 9.95 42.05 9.95Q42.55 9.95 42.55 10.50Q42.55 10.65 42.30 11.05Q39.80 15.30 38.03 19.75Q36.25 24.20 34.90 28.90L34.80 29.25Q35.10 29.25 35.43 29.27Q35.75 29.30 36.00 29.30Q38.15 29.45 39.65 28.85Q40.75 28.45 41.15 27.70Q41.30 27.50 41.40 27.50Q41.65 27.50 41.75 27.77Q41.85 28.05 41.70 28.30Q41.15 29.25 39.75 29.70Q38.95 30.05 37.93 30.15Q36.90 30.25 35.80 30.20L35.50 30.20L34.90 30.15L34.60 30.15Q33.85 32.90 33.55 35.85Q33.50 36.10 33.50 36.33Q33.50 36.55 33.50 36.80Q33.50 39.65 35.05 39.65Q36.05 39.65 37.43 38.75Q38.80 37.85 40.23 36.55Q41.65 35.25 42.80 33.98Q43.95 32.70 44.50 31.95Q44.60 31.85 44.80 31.85Q45.30 31.85 45.10 32.40Q45.00 32.55 44.25 33.58Q43.50 34.60 42.20 36.02Q40.90 37.45 39.15 38.85Q37.75 39.95 36.38 40.27Q35.00 40.60 34.30 40.60Q32.90 40.60 32.08 39.33Q31.25 38.05 31.25 36.05Q31.25 34.60 31.55 33.05Q31.85 31.50 32.25 29.95Q30.80 29.80 29.30 29.63Q27.80 29.45 26.30 29.25Q23.30 32.90 20.32 36.08Q17.35 39.25 14.75 41.20Q12.80 42.60 10.72 43.38Q8.65 44.15 6.55 44.15M32.45 29Q33.35 25.50 34.58 21.97Q35.80 18.45 37.00 15.55L37.25 14.95Q35.10 17.95 32.53 21.35Q29.95 24.75 27.30 28.10Q28.60 28.35 29.90 28.57Q31.20 28.80 32.45 29ZM60.45 30.65Q60.25 30.70 59.85 30.42Q59.45 30.15 58.90 29.25Q58.80 29.05 58.43 28.38Q58.05 27.70 57.65 26.85Q57.30 26.15 56.93 25.45Q56.55 24.75 56.30 24.30Q54.75 26.30 53.88 27.50Q53.00 28.70 52.60 29.15Q51.80 30.25 51.05 30.25Q50.50 30.25 50.30 29.80Q50.10 29.35 50.15 28.95Q50.25 28.75 50.63 28.27Q51.00 27.80 51.65 27Q52.30 26.35 53.08 25.42Q53.85 24.50 54.80 23.35Q52.70 23.40 51.00 23.40Q49.30 23.40 48.80 23.50Q48.00 23.55 47.60 23.30Q47.20 23.05 47.15 22.80L47.15 22.75Q47.15 22.45 47.40 22.18Q47.65 21.90 48.00 21.75Q48.40 21.55 50.50 21.47Q52.60 21.40 55.20 21.40Q54.75 20.60 54.18 19.57Q53.60 18.55 53.15 17.60Q52.70 16.65 52.50 16.15Q52.35 15.75 52.35 15.40Q52.35 14.85 52.65 14.52Q52.95 14.20 53.30 14.20Q54.10 14.20 54.60 15.30Q54.75 15.70 55.45 17.17Q56.15 18.65 56.80 20.40Q57.90 19.10 58.98 17.88Q60.05 16.65 60.80 15.72Q61.55 14.80 61.75 14.55Q62.05 14.15 62.30 13.95Q62.55 13.75 62.75 13.65Q62.85 13.60 63.05 13.60Q63.40 13.60 63.45 13.85Q63.50 13.95 63.50 14.15Q63.50 14.90 63.00 15.55Q62.40 16.35 61.85 17.07Q61.30 17.80 60.58 18.80Q59.85 19.80 58.55 21.40Q59.30 21.45 60.08 21.45Q60.85 21.45 61.60 21.45Q63.05 21.45 64.20 21.43Q65.35 21.40 65.70 21.40Q67 21.45 67.53 21.63Q68.05 21.80 68.05 22.05Q68.05 22.35 67.33 22.65Q66.60 22.95 65.85 23Q65.65 23 64.50 23.05Q63.35 23.10 61.68 23.15Q60 23.20 58.05 23.25Q58.85 25.45 59.70 27.10Q60.55 28.75 60.75 29.05Q60.90 29.50 60.90 29.85Q60.90 30.55 60.45 30.65Z"/></g></g></g></svg>