<svg xmlns="http://www.w3.org/2000/svg" viewBox="0 28.799999237060547 50.349998474121094 36.29999923706055" data-asc="1.292" width="50.349998474121094" height="36.29999923706055"><defs/><g><g fill="#000000"><g transform="translate(0, 0)"><path d="M25.65 30.75Q20.30 31.45 15.90 34.50Q11.50 37.55 9 42.20Q6.50 46.85 6.50 52.10Q6.50 56.75 8 59.30Q9.50 61.85 12.10 61.85Q14.50 61.85 16.73 58.03Q18.95 54.20 20.30 47.95Q21.65 41.70 21.65 34.95L27.95 32.90L27.95 59.55Q27.95 60.60 28.45 61.28Q28.95 61.95 29.75 61.95Q30.50 61.95 31.28 61.50Q32.05 61.05 32.60 60.25L33.65 61.25Q31.40 64.95 27.20 64.95Q24.55 64.95 23.10 63.28Q21.65 61.60 21.65 58.30L21.65 51.50L21.30 51.50Q19.85 58.30 16.95 61.70Q14.05 65.10 9.85 65.10Q5.30 65.10 2.65 62.00Q0 58.90 0 53.45Q0 47.05 3.47 41.48Q6.95 35.90 12.83 32.48Q18.70 29.05 25.65 28.80L25.65 30.75ZM43.80 39.70L47.75 43.80L50.35 40.70L45.30 37.45L50.35 34.20L47.75 31.05L43.90 35.50L44.85 29.05L40.45 29.05L41.50 35.10L37.95 31.05L35.35 34.20L40.45 37.45L35.35 40.70L37.95 43.80L41.35 40.30L40.45 45.60L44.85 45.60L43.80 39.70Z"/></g></g></g></svg>