<svg xmlns="http://www.w3.org/2000/svg" viewBox="0 12.069999694824219 60.38999938964844 36.369998931884766" data-asc="0.96875" width="60.38999938964844" height="36.369998931884766"><defs/><g><g fill="#000000"><g transform="translate(0, 0)"><path d="M8.24 48.44L0 48.44L12.55 12.07L22.46 12.07L35.00 48.44L26.76 48.44L17.65 20.38L17.37 20.38L8.24 48.44M7.72 34.14L27.18 34.14L27.18 40.15L7.72 40.15L7.72 34.14ZM47.94 32.53L48.38 25.66L42.63 29.51L40.25 25.32L46.45 22.30L40.25 19.28L42.63 15.09L48.38 18.95L47.94 12.07L52.72 12.07L52.25 18.95L58.01 15.09L60.39 19.28L54.21 22.30L60.39 25.32L58.01 29.51L52.25 25.66L52.72 32.53L47.94 32.53Z"/></g></g></g></svg>