<svg xmlns="http://www.w3.org/2000/svg" viewBox="0 14.199999809265137 55.599998474121094 35" data-asc="0.984" width="55.599998474121094" height="35"><defs/><g><g fill="#000000"><g transform="translate(0, 0)"><path d="M0 49.20L9.20 14.20L20.70 14.20L29.90 49.20L23.10 49.20L21.20 41.50L8.70 41.50L6.80 49.20L0 49.20M10.25 35.40L19.65 35.40L15.40 18.35L14.50 18.35L10.25 35.40ZM33.00 27.35L33.00 23.65L36.90 23.65L40.50 24.30L40.75 23.65L37.75 21.60L35.00 18.80L37.60 16.20L40.40 18.95L42.45 21.95L43.10 21.70L42.45 18.10L42.45 14.20L46.15 14.20L46.15 18.10L45.50 21.70L46.15 21.95L48.20 18.95L51.00 16.20L53.60 18.80L50.85 21.60L47.85 23.65L48.10 24.30L51.70 23.65L55.60 23.65L55.60 27.35L51.70 27.35L48.10 26.70L47.85 27.35L50.85 29.40L53.60 32.20L51.00 34.80L48.20 32.05L46.15 29.05L45.50 29.30L46.15 32.90L46.15 36.80L42.45 36.80L42.45 32.90L43.10 29.30L42.45 29.05L40.40 32.05L37.60 34.80L35.00 32.20L37.75 29.40L40.75 27.35L40.50 26.70L36.90 27.35L33.00 27.35Z"/></g></g></g></svg>